<?xml version="1.0" encoding="utf-8"?>
<!-- Generator: Adobe Illustrator 18.1.0, SVG Export Plug-In . SVG Version: 6.00 Build 0)  -->
<svg version="1.1" id="レイヤー_1" xmlns="http://www.w3.org/2000/svg" xmlns:xlink="http://www.w3.org/1999/xlink" x="0px"
	 y="0px" viewBox="0 0 300 300" enable-background="new 0 0 300 300" xml:space="preserve">
<g>
	<path fill="#D2A0BE" d="M128.4,54.9v55.3c0,28.8-4.3,52.5-12.8,71.2c-8.5,18.7-23.3,34.5-44.3,47.3c-21,12.9-44.8,21.6-71.3,26.1
		v-44.7c19-8.4,29.7-19.8,32.2-34.4H0v-121H128.4z M300,54.9v55.3c0,28.8-4.3,52.5-12.8,71.2c-8.5,18.7-23.3,34.5-44.3,47.3
		c-21,12.9-44.8,21.6-71.3,26.1v-44.7c18.6-8.4,29.2-19.8,31.7-34.4h-31.7v-121H300z"/>
</g>
</svg>
