<?xml version="1.0" encoding="utf-8"?>
<!-- Generator: Adobe Illustrator 18.1.0, SVG Export Plug-In . SVG Version: 6.00 Build 0)  -->
<svg version="1.1" id="レイヤー_1" xmlns="http://www.w3.org/2000/svg" xmlns:xlink="http://www.w3.org/1999/xlink" x="0px"
	 y="0px" viewBox="0 0 50 50" enable-background="new 0 0 50 50" xml:space="preserve">
<path fill="#FFFFFF" stroke="#D296BE" stroke-miterlimit="10" d="M25,0.5C11.5,0.5,0.5,11.7,0.5,25.6c0,11.1,7,20.5,16.8,23.8
	c1.2,0.2,1.7-0.5,1.7-1.2c0-0.6,0-2.2,0-4.3c-6.8,1.5-8.3-3.4-8.3-3.4c-1.1-2.9-2.7-3.7-2.7-3.7c-2.2-1.6,0.2-1.5,0.2-1.5
	c2.5,0.2,3.8,2.6,3.8,2.6c2.2,3.8,5.7,2.7,7.1,2.1c0.2-1.6,0.9-2.7,1.6-3.4c-5.4-0.6-11.2-2.8-11.2-12.4c0-2.7,1-5,2.5-6.7
	c-0.3-0.6-1.1-3.2,0.2-6.6c0,0,2.1-0.7,6.7,2.6c2-0.6,4.1-0.8,6.1-0.8c2.1,0,4.2,0.3,6.1,0.8c4.7-3.3,6.7-2.6,6.7-2.6
	c1.3,3.5,0.5,6,0.2,6.6c1.6,1.8,2.5,4,2.5,6.7c0,9.7-5.7,11.8-11.2,12.4c0.9,0.8,1.7,2.3,1.7,4.7c0,3.4,0,6.1,0,6.9
	c0,0.7,0.4,1.5,1.7,1.2c9.7-3.3,16.7-12.7,16.7-23.8C49.5,11.7,38.5,0.5,25,0.5z"/>
</svg>
