<?xml version="1.0" encoding="utf-8"?>
<!-- Generator: Adobe Illustrator 18.1.0, SVG Export Plug-In . SVG Version: 6.00 Build 0)  -->
<svg version="1.1" id="レイヤー_1" xmlns="http://www.w3.org/2000/svg" xmlns:xlink="http://www.w3.org/1999/xlink" x="0px"
	 y="0px" viewBox="0 0 120 120" enable-background="new 0 0 120 120" xml:space="preserve">
<g>
	<path fill-rule="evenodd" clip-rule="evenodd" fill="#FFFFFF" d="M60,1.1c-33.1,0-60,27-60,60.4c0,26.7,17.2,49.3,41,57.3
		c3,0.6,4.1-1.3,4.1-2.9c0-1.4-0.1-6.2-0.1-11.2c-16.7,3.7-20.2-7.1-20.2-7.1c-2.7-7-6.7-8.8-6.7-8.8c-5.4-3.7,0.4-3.7,0.4-3.7
		c6,0.4,9.2,6.2,9.2,6.2c5.4,9.2,14,6.6,17.5,5c0.5-3.9,2.1-6.6,3.8-8.1c-13.3-1.5-27.3-6.7-27.3-29.8c0-6.6,2.3-12,6.2-16.2
		c-0.6-1.5-2.7-7.7,0.6-16c0,0,5-1.6,16.5,6.2c4.8-1.3,9.9-2,15-2c5.1,0,10.2,0.7,15,2c11.5-7.8,16.5-6.2,16.5-6.2
		c3.3,8.3,1.2,14.5,0.6,16c3.8,4.2,6.2,9.6,6.2,16.2c0,23.2-14,28.3-27.4,29.8C73,90,75,93.7,75,99.3c0,8.1-0.1,14.6-0.1,16.6
		c0,1.6,1.1,3.5,4.1,2.9c23.8-8,41-30.6,41-57.3C120,28.1,93.1,1.1,60,1.1z"/>
	<path fill="#FFFFFF" d="M22.7,87.8c-0.1,0.3-0.6,0.4-1,0.2c-0.4-0.2-0.7-0.6-0.5-0.9c0.1-0.3,0.6-0.4,1-0.2
		C22.6,87.1,22.9,87.5,22.7,87.8L22.7,87.8z M22,87.3"/>
	<path fill="#FFFFFF" d="M25.2,90.5c-0.3,0.3-0.8,0.1-1.2-0.3c-0.4-0.4-0.5-1-0.2-1.3c0.3-0.3,0.8-0.1,1.2,0.3
		C25.4,89.7,25.5,90.3,25.2,90.5L25.2,90.5z M24.6,89.9"/>
	<path fill="#FFFFFF" d="M27.5,94c-0.4,0.3-1,0-1.3-0.5c-0.4-0.5-0.4-1.2,0-1.4c0.4-0.3,1,0,1.3,0.5C27.9,93.1,27.9,93.7,27.5,94
		L27.5,94z M27.5,94"/>
	<path fill="#FFFFFF" d="M30.8,97.4c-0.3,0.4-1,0.3-1.5-0.2c-0.5-0.5-0.7-1.2-0.3-1.5c0.3-0.4,1-0.3,1.6,0.2
		C31,96.3,31.1,97,30.8,97.4L30.8,97.4z M30.8,97.4"/>
	<path fill="#FFFFFF" d="M35.2,99.3c-0.1,0.5-0.8,0.7-1.5,0.5c-0.7-0.2-1.1-0.8-1-1.2c0.1-0.5,0.8-0.7,1.5-0.5
		C34.9,98.3,35.4,98.8,35.2,99.3L35.2,99.3z M35.2,99.3"/>
	<path fill="#FFFFFF" d="M40.1,99.7c0,0.5-0.6,0.9-1.3,0.9c-0.7,0-1.3-0.4-1.3-0.9c0-0.5,0.6-0.9,1.3-0.9
		C39.6,98.8,40.1,99.2,40.1,99.7L40.1,99.7z M40.1,99.7"/>
	<path fill="#FFFFFF" d="M44.7,98.9c0.1,0.5-0.4,1-1.1,1.1c-0.7,0.1-1.3-0.2-1.4-0.7c-0.1-0.5,0.4-1,1.1-1.1
		C44,98.1,44.6,98.4,44.7,98.9L44.7,98.9z M44.7,98.9"/>
</g>
</svg>
